<svg width="117" height="103" viewBox="0 0 117 103" fill="none" xmlns="http://www.w3.org/2000/svg">
<path d="M115.466 27.8855C97.8758 16.704 82.5163 8.18564 63.0404 3.33437C50.3904 0.183318 30.8429 -0.795191 25.2381 13.8971C18.9552 30.3667 16.5942 51.4269 15.3163 69.5072C14.6221 79.3305 13.1272 88.5966 12.999 98.485C12.9723 100.597 12.1217 102.514 14.2665 99.6635C17.3321 95.589 20.7747 91.976 24.3256 88.3669C31.083 81.4987 32.2657 79.3671 22.8677 87.4683C20.6308 89.3966 14.9974 96.7658 11.6397 97.2043C8.51191 97.6124 4.87726 87.9057 3.69454 85.5794C-5.57997 67.3363 15.3313 78.8798 24.7593 81.1174" stroke="#ECECEC" stroke-width="2.5" stroke-linecap="round"/>
</svg>
